<?xml version="1.0" encoding="UTF-8" standalone="no"?>
<!DOCTYPE svg PUBLIC "-//W3C//DTD SVG 1.1//EN" "http://www.w3.org/Graphics/SVG/1.1/DTD/svg11.dtd">
<svg version="1.1" xmlns="http://www.w3.org/2000/svg" xmlns:xlink="http://www.w3.org/1999/xlink" preserveAspectRatio="xMidYMid meet" viewBox="0 0 640 640" width="640" height="640"><defs><path d="M302.76 470C302.76 503.94 262.59 531.49 213.1 531.49C163.62 531.49 123.45 503.94 123.45 470C123.45 436.06 163.62 408.51 213.1 408.51C262.59 408.51 302.76 436.06 302.76 470Z" id="a2MsA1gofl"></path><path d="" id="kghDterWY"></path><path d="M250.98 422.37L250.98 131.59C238.86 131.59 231.28 131.59 228.25 131.59C226.01 131.59 224.2 129.78 224.2 127.54C224.2 122.72 224.2 110.65 224.2 91.35L478.62 87.88L478.62 131.59L302.11 131.59L302.11 258.17L407.55 258.17L407.55 306.2L302.76 306.2L302.11 476.9L250.98 422.37Z" id="em2zQqY7t"></path><path d="" id="g1ohiEw1Ks"></path><path d="M287.95 469.78C287.95 497.75 255.99 520.46 216.62 520.46C177.25 520.46 145.29 497.75 145.29 469.78C145.29 441.81 177.25 419.11 216.62 419.11C255.99 419.11 287.95 441.81 287.95 469.78Z" id="a1X3qRUYU"></path><path d="" id="ahKKKRBTi"></path><path d="M249.41 423.02L249.41 148.06C240.45 148.06 234.84 148.06 232.6 148.06C230.88 148.06 229.48 146.66 229.48 144.93C229.48 140.28 229.48 128.64 229.48 110.01L437.84 106.73L437.84 148.06L287.47 148.06L287.47 267.75L365.95 267.75L365.95 313.17L287.95 313.17L287.47 474.58L249.41 423.02Z" id="c5mpqO8Ofl"></path></defs><g><g><g><use xlink:href="#a2MsA1gofl" opacity="1" fill="#000000" fill-opacity="1"></use><g><use xlink:href="#a2MsA1gofl" opacity="1" fill-opacity="0" stroke="#000000" stroke-width="1" stroke-opacity="1"></use></g></g><g><g><use xlink:href="#kghDterWY" opacity="1" fill-opacity="0" stroke="#000000" stroke-width="1" stroke-opacity="1"></use></g></g><g><use xlink:href="#em2zQqY7t" opacity="1" fill="#000000" fill-opacity="1"></use><g><use xlink:href="#em2zQqY7t" opacity="1" fill-opacity="0" stroke="#000000" stroke-width="1" stroke-opacity="1"></use></g></g><g><g><use xlink:href="#g1ohiEw1Ks" opacity="1" fill-opacity="0" stroke="#6f0039" stroke-width="1" stroke-opacity="1"></use></g></g><g><use xlink:href="#a1X3qRUYU" opacity="1" fill="#e62e57" fill-opacity="1"></use><g><use xlink:href="#a1X3qRUYU" opacity="1" fill-opacity="0" stroke="#000000" stroke-width="1" stroke-opacity="1"></use></g><g><use xlink:href="#a1X3qRUYU" opacity="1" fill-opacity="0" stroke="#e93e3e" stroke-width="1" stroke-opacity="1"></use></g></g><g><use xlink:href="#ahKKKRBTi" opacity="1" fill="#ffffff" fill-opacity="1"></use><g><use xlink:href="#ahKKKRBTi" opacity="1" fill-opacity="0" stroke="#000000" stroke-width="1" stroke-opacity="1"></use></g></g><g><use xlink:href="#c5mpqO8Ofl" opacity="1" fill="#e62e57" fill-opacity="1"></use><g><use xlink:href="#c5mpqO8Ofl" opacity="1" fill-opacity="0" stroke="#e93e3e" stroke-width="1" stroke-opacity="1"></use></g></g></g></g></svg>