<?xml version="1.0" encoding="UTF-8" standalone="no"?>
<!DOCTYPE svg PUBLIC "-//W3C//DTD SVG 1.1//EN" "http://www.w3.org/Graphics/SVG/1.1/DTD/svg11.dtd">
<svg version="1.1" xmlns="http://www.w3.org/2000/svg" xmlns:xlink="http://www.w3.org/1999/xlink" preserveAspectRatio="xMidYMid meet" viewBox="0 0 640 640" width="640" height="640"><defs><path d="M173.45 627.92L293.58 600.35L271.76 525.69L170.78 587.72L173.45 627.92Z" id="b2LmXR4Sq3"></path><path d="M468.46 631.84L348.33 604.27L370.15 529.61L471.13 591.64L468.46 631.84Z" id="a2bhzekICr"></path><path d="M155.07 267.89L170 257.47L197.57 278.78L149.32 298.91L155.07 267.89Z" id="drXgZBgqZ"></path><path d="M486.74 267.25L472.51 256.82L446.26 278.13L492.21 298.26L486.74 267.25Z" id="a6qfXByHH0"></path><path d="M577.8 320L564.4 309.58L539.66 330.89L582.96 351.01L577.8 320Z" id="j1MYQSkmQQ"></path><path d="M56.96 320L71.89 309.58L99.46 330.89L51.22 351.01L56.96 320Z" id="b3UQ9Ry3HP"></path><path d="M618.34 441.06L374.02 356.06L377.65 252.68L625.6 383.63L618.34 441.06Z" id="bomNBrgCF"></path><path d="M18.37 445.2L265.99 360.2L262.31 256.82L11.01 387.77L18.37 445.2Z" id="a2tr1IzjB"></path><path d="M265.99 104.06L272.88 382.5C272.88 508.09 280.92 581.98 297 604.19C313.09 626.4 329.55 626.4 346.4 604.19L373.96 460.61C373.2 224.75 373.2 101.46 373.96 90.74C374.73 80.02 367.59 57.43 352.56 22.97C334.67 10.72 317.67 7.27 301.55 12.64C285.44 18 277.76 31.4 278.5 52.84L265.99 104.06Z" id="e2Yuo6VFY"></path><path d="M331.12 1.45C310.51 -3.93 288.79 6.01 279.34 25.03C263.92 56.02 255.86 90.71 256.05 125.28C256.05 158.63 256.05 425.45 256.05 458.81C256.05 459.48 256.12 460.15 256.24 460.82C259.11 475.69 282.07 594.63 284.94 609.49C287.36 626.9 302.43 640 319.97 640C319.99 640 320.01 640 320.03 640C337.59 640 352.66 626.89 354.98 610.05C357.86 595.13 380.88 475.74 383.76 460.82C383.9 460.16 383.96 459.48 383.96 458.81C383.96 425.45 383.96 158.61 383.96 125.26C383.89 91.91 376.15 58.43 361.8 28.92C356.21 15.8 345.21 5.84 331.12 1.45ZM333.97 606.55C333.01 613.47 327.01 618.68 320 618.68C312.99 618.68 307 613.47 305.97 606.01C304.06 596.13 294.53 546.72 277.38 457.78C277.38 258.25 277.38 147.4 277.38 125.23C277.21 93.92 284.49 62.55 298.44 34.52C303.43 24.48 314.94 19.24 325.26 21.94C332.88 24.32 339.06 29.9 342.4 37.74C355.58 64.87 362.57 95.14 362.64 125.28C362.64 147.45 362.64 258.28 362.64 457.77C345.44 547.04 335.88 596.63 333.97 606.55Z" id="auEfu03iD"></path><path d="M261.64 236.24C236.05 250.1 31.4 360.96 5.82 374.81C2.38 376.68 0.23 380.27 0.23 384.18C0.23 390.58 0.23 441.74 0.23 448.14C0.23 451.63 1.94 454.89 4.82 456.9C6.63 458.14 8.75 458.79 10.89 458.79C12.15 458.79 13.42 458.58 14.63 458.12C40.22 448.53 244.87 371.78 270.45 362.19C274.61 360.62 277.37 356.65 277.37 352.2C277.37 341.54 277.37 256.27 277.37 245.61C277.37 241.86 275.4 238.39 272.17 236.46C268.94 234.53 264.92 234.45 261.64 236.24ZM21.55 432.76L21.55 390.54L256.05 263.52L256.05 344.82L21.55 432.76Z" id="g1slPaaPUM"></path><path d="M378.37 236.24C375.07 234.46 371.07 234.53 367.84 236.46C364.62 238.38 362.64 241.85 362.64 245.61C362.64 256.27 362.64 341.55 362.64 352.2C362.64 356.65 365.39 360.64 369.55 362.19C395.13 371.79 599.79 448.53 625.37 458.12C626.59 458.57 627.86 458.8 629.12 458.8C631.26 458.8 633.38 458.16 635.17 456.9C638.05 454.9 639.77 451.63 639.77 448.14C639.77 441.74 639.77 390.58 639.77 384.18C639.77 380.27 637.63 376.68 634.19 374.81C583.03 347.1 403.96 250.1 378.37 236.24ZM383.96 344.82L383.96 263.51L618.46 390.53L618.46 432.76L383.96 344.82Z" id="bbvmMruGM"></path><path d="M138.8 277.6C138.8 279.73 138.8 290.39 138.8 309.58L160.12 309.58C160.12 290.39 160.12 279.73 160.12 277.6C160.12 271.73 164.9 266.94 170.78 266.94C176.65 266.94 181.44 271.73 181.44 277.6C181.44 278.31 181.44 281.87 181.44 288.26L202.75 288.26C202.75 281.87 202.75 278.31 202.75 277.6C202.76 259.97 188.41 245.62 170.78 245.62C153.15 245.62 138.8 259.97 138.8 277.6Z" id="aCKGol02z"></path><path d="M42.87 330.89C42.87 333.02 42.87 343.68 42.87 362.86L64.19 362.86C64.19 343.68 64.19 333.02 64.19 330.89C64.19 325.01 68.97 320.24 74.84 320.24C80.72 320.24 85.5 325.01 85.5 330.89C87.64 330.89 104.69 330.89 106.82 330.89C106.82 313.26 92.48 298.91 74.85 298.91C57.22 298.91 42.87 313.26 42.87 330.89Z" id="bA1m2HlQu"></path><path d="M437.26 277.6C437.26 278.31 437.26 281.87 437.26 288.26L458.57 288.26C458.57 281.87 458.57 278.31 458.57 277.6C458.57 271.73 463.35 266.94 469.23 266.94C475.12 266.94 479.89 271.73 479.89 277.6C479.89 279.73 479.89 290.39 479.89 309.58L501.21 309.58C501.21 290.39 501.21 279.73 501.21 277.6C501.21 259.97 486.86 245.62 469.23 245.62C451.6 245.62 437.26 259.97 437.26 277.6Z" id="bxawdwaQ2"></path><path d="M533.19 330.89C535.32 330.89 552.37 330.89 554.51 330.89C554.51 325.01 559.28 320.24 565.16 320.24C571.05 320.24 575.82 325.01 575.82 330.89C575.82 333.02 575.82 343.68 575.82 362.86L597.14 362.86C597.14 343.68 597.14 333.02 597.14 330.89C597.14 313.26 582.8 298.91 565.17 298.91C547.54 298.91 533.19 313.26 533.19 330.89Z" id="a1i9XkFOSY"></path><path d="M181.43 616.76L181.43 592.75L282.85 531.9L271.88 513.62C207.93 551.99 172.4 573.31 165.29 577.57C162.08 579.49 160.12 582.95 160.12 586.7C160.12 590.97 160.12 625.08 160.12 629.34C160.12 632.47 161.51 635.46 163.89 637.47C165.83 639.11 168.27 640 170.78 640C171.35 640 171.94 639.95 172.52 639.86C181.04 638.44 223.68 631.33 300.43 618.54L296.92 597.51L181.43 616.76Z" id="b1h0ToThXu"></path><path d="M368.12 513.62L357.15 531.9L458.58 592.75L458.58 616.75L343.07 597.5L339.58 618.53C416.32 631.32 458.96 638.43 467.49 639.85C468.07 639.95 468.65 640 469.23 640C471.74 640 474.18 639.11 476.11 637.47C478.51 635.45 479.88 632.47 479.88 629.34C479.88 625.08 479.88 590.97 479.88 586.7C479.88 582.96 477.92 579.5 474.71 577.57C460.5 569.04 424.97 547.72 368.12 513.62Z" id="d1QzchzMJE"></path><path d="M319.89 64.41C308.58 64.51 298.86 71.88 295.83 82.29C295.35 83.71 292.93 90.82 288.58 103.61L308.77 110.48C313.2 97.42 315.66 90.16 316.16 88.71C316.68 86.94 318.26 85.74 320.02 85.72C321.81 85.72 323.38 86.86 323.95 88.54C324.43 90 326.85 97.28 331.2 110.39L351.43 103.68L344.17 81.81C335.22 70.39 327.12 64.58 319.89 64.41Z" id="c1JSicg0Rd"></path><path d="" id="bq8vlFCdp"></path></defs><g><g><g><use xlink:href="#b2LmXR4Sq3" opacity="1" fill="#e3e3e3" fill-opacity="1"></use><g><use xlink:href="#b2LmXR4Sq3" opacity="1" fill-opacity="0" stroke="#000000" stroke-width="1" stroke-opacity="1"></use></g></g><g><use xlink:href="#a2bhzekICr" opacity="1" fill="#e3e3e3" fill-opacity="1"></use><g><use xlink:href="#a2bhzekICr" opacity="1" fill-opacity="0" stroke="#000000" stroke-width="1" stroke-opacity="1"></use></g></g><g><use xlink:href="#drXgZBgqZ" opacity="1" fill="#e3e3e3" fill-opacity="1"></use><g><use xlink:href="#drXgZBgqZ" opacity="1" fill-opacity="0" stroke="#000000" stroke-width="1" stroke-opacity="1"></use></g></g><g><use xlink:href="#a6qfXByHH0" opacity="1" fill="#e3e3e3" fill-opacity="1"></use><g><use xlink:href="#a6qfXByHH0" opacity="1" fill-opacity="0" stroke="#000000" stroke-width="1" stroke-opacity="1"></use></g></g><g><use xlink:href="#j1MYQSkmQQ" opacity="1" fill="#e3e3e3" fill-opacity="1"></use><g><use xlink:href="#j1MYQSkmQQ" opacity="1" fill-opacity="0" stroke="#000000" stroke-width="1" stroke-opacity="1"></use></g></g><g><use xlink:href="#b3UQ9Ry3HP" opacity="1" fill="#e3e3e3" fill-opacity="1"></use><g><use xlink:href="#b3UQ9Ry3HP" opacity="1" fill-opacity="0" stroke="#000000" stroke-width="1" stroke-opacity="1"></use></g></g><g><use xlink:href="#bomNBrgCF" opacity="1" fill="#e3e3e3" fill-opacity="1"></use><g><use xlink:href="#bomNBrgCF" opacity="1" fill-opacity="0" stroke="#000000" stroke-width="1" stroke-opacity="1"></use></g></g><g><use xlink:href="#a2tr1IzjB" opacity="1" fill="#e3e3e3" fill-opacity="1"></use><g><use xlink:href="#a2tr1IzjB" opacity="1" fill-opacity="0" stroke="#000000" stroke-width="1" stroke-opacity="1"></use></g></g><g><use xlink:href="#e2Yuo6VFY" opacity="1" fill="#e3e3e3" fill-opacity="1"></use><g><use xlink:href="#e2Yuo6VFY" opacity="1" fill-opacity="0" stroke="#000000" stroke-width="1" stroke-opacity="1"></use></g></g><g><use xlink:href="#auEfu03iD" opacity="1" fill="#000000" fill-opacity="1"></use><g><use xlink:href="#auEfu03iD" opacity="1" fill-opacity="0" stroke="#000000" stroke-width="1" stroke-opacity="0"></use></g></g><g><use xlink:href="#g1slPaaPUM" opacity="1" fill="#000000" fill-opacity="1"></use><g><use xlink:href="#g1slPaaPUM" opacity="1" fill-opacity="0" stroke="#000000" stroke-width="1" stroke-opacity="0"></use></g></g><g><use xlink:href="#bbvmMruGM" opacity="1" fill="#000000" fill-opacity="1"></use><g><use xlink:href="#bbvmMruGM" opacity="1" fill-opacity="0" stroke="#000000" stroke-width="1" stroke-opacity="0"></use></g></g><g><use xlink:href="#aCKGol02z" opacity="1" fill="#000000" fill-opacity="1"></use><g><use xlink:href="#aCKGol02z" opacity="1" fill-opacity="0" stroke="#000000" stroke-width="1" stroke-opacity="0"></use></g></g><g><use xlink:href="#bA1m2HlQu" opacity="1" fill="#000000" fill-opacity="1"></use><g><use xlink:href="#bA1m2HlQu" opacity="1" fill-opacity="0" stroke="#000000" stroke-width="1" stroke-opacity="0"></use></g></g><g><use xlink:href="#bxawdwaQ2" opacity="1" fill="#000000" fill-opacity="1"></use><g><use xlink:href="#bxawdwaQ2" opacity="1" fill-opacity="0" stroke="#000000" stroke-width="1" stroke-opacity="0"></use></g></g><g><use xlink:href="#a1i9XkFOSY" opacity="1" fill="#000000" fill-opacity="1"></use><g><use xlink:href="#a1i9XkFOSY" opacity="1" fill-opacity="0" stroke="#000000" stroke-width="1" stroke-opacity="0"></use></g></g><g><use xlink:href="#b1h0ToThXu" opacity="1" fill="#000000" fill-opacity="1"></use><g><use xlink:href="#b1h0ToThXu" opacity="1" fill-opacity="0" stroke="#000000" stroke-width="1" stroke-opacity="0"></use></g></g><g><use xlink:href="#d1QzchzMJE" opacity="1" fill="#000000" fill-opacity="1"></use><g><use xlink:href="#d1QzchzMJE" opacity="1" fill-opacity="0" stroke="#000000" stroke-width="1" stroke-opacity="0"></use></g></g><g><use xlink:href="#c1JSicg0Rd" opacity="1" fill="#000000" fill-opacity="1"></use><g><use xlink:href="#c1JSicg0Rd" opacity="1" fill-opacity="0" stroke="#000000" stroke-width="1" stroke-opacity="0"></use></g></g><g><g><use xlink:href="#bq8vlFCdp" opacity="1" fill-opacity="0" stroke="#000000" stroke-width="1" stroke-opacity="1"></use></g></g></g></g></svg>